<svg id="information_linear" data-name="information/linear" xmlns="http://www.w3.org/2000/svg" width="24" height="24" viewBox="0 0 24 24">
  <g id="vuesax_linear_information" data-name="vuesax/linear/information">
    <g id="information">
      <path id="Vector" d="M8.745.442a2,2,0,0,1,2.51,0l1.58,1.35a2.31,2.31,0,0,0,1.27.46h1.7a1.938,1.938,0,0,1,1.93,1.93v1.7a2.279,2.279,0,0,0,.46,1.26l1.35,1.58a2,2,0,0,1,0,2.51l-1.35,1.58a2.279,2.279,0,0,0-.46,1.26v1.7A1.938,1.938,0,0,1,15.8,17.7h-1.7a2.279,2.279,0,0,0-1.26.46l-1.58,1.35a2,2,0,0,1-2.51,0l-1.58-1.35a2.307,2.307,0,0,0-1.26-.46H4.165a1.938,1.938,0,0,1-1.93-1.93v-1.71a2.237,2.237,0,0,0-.45-1.25l-1.35-1.59a2.013,2.013,0,0,1,0-2.5l1.35-1.59a2.264,2.264,0,0,0,.45-1.25V4.192a1.938,1.938,0,0,1,1.93-1.93h1.73a2.279,2.279,0,0,0,1.26-.46Z" transform="translate(2.005 2.008)" fill="none" stroke="#004aad" stroke-linecap="round" stroke-linejoin="round" stroke-width="1.5"/>
      <path id="Vector-2" data-name="Vector" d="M0,0V4.83" transform="translate(12 8.13)" fill="none" stroke="#004aad" stroke-linecap="round" stroke-linejoin="round" stroke-width="1.5"/>
      <path id="Vector-3" data-name="Vector" d="M0,0H.009" transform="translate(11.995 16)" fill="none" stroke="#004aad" stroke-linecap="round" stroke-linejoin="round" stroke-width="2"/>
      <path id="Vector-4" data-name="Vector" d="M0,0H24V24H0Z" fill="none" opacity="0"/>
    </g>
  </g>
</svg>
