<svg id="percentage-square_linear_percentage-square" data-name="percentage-square/linear/percentage-square" xmlns="http://www.w3.org/2000/svg" width="24" height="24" viewBox="0 0 24 24">
  <g id="vuesax_linear_percentage-square" data-name="vuesax/linear/percentage-square">
    <path id="Vector" d="M7,0h6c5,0,7,2,7,7v6c0,5-2,7-7,7H7c-5,0-7-2-7-7V7C0,2,2,0,7,0Z" transform="translate(2 2)" fill="none" stroke="#004aad" stroke-linecap="round" stroke-linejoin="round" stroke-width="1.5"/>
    <path id="Vector-2" data-name="Vector" d="M0,6.54,6.54,0" transform="translate(8.57 8.73)" fill="none" stroke="#004aad" stroke-linecap="round" stroke-linejoin="round" stroke-width="1.5"/>
    <path id="Vector-3" data-name="Vector" d="M2.46,1.23A1.23,1.23,0,1,1,1.23,0,1.23,1.23,0,0,1,2.46,1.23Z" transform="translate(7.75 7.91)" fill="none" stroke="#004aad" stroke-linecap="round" stroke-linejoin="round" stroke-width="1.5"/>
    <path id="Vector-4" data-name="Vector" d="M2.46,1.23A1.23,1.23,0,1,1,1.23,0,1.23,1.23,0,0,1,2.46,1.23Z" transform="translate(14.29 13.63)" fill="none" stroke="#004aad" stroke-linecap="round" stroke-linejoin="round" stroke-width="1.5"/>
    <path id="Vector-5" data-name="Vector" d="M0,0H24V24H0Z" fill="none" opacity="0"/>
  </g>
</svg>
