<svg id="share_linear" data-name="share/linear" xmlns="http://www.w3.org/2000/svg" width="24" height="24" viewBox="0 0 24 24">
  <g id="vuesax_linear_share" data-name="vuesax/linear/share">
    <g id="share">
      <path id="Vector" d="M0,0A8.63,8.63,0,0,1,3.66,6.15" transform="translate(16.96 6.17)" fill="none" stroke="#004aad" stroke-linecap="round" stroke-linejoin="round" stroke-width="1.5"/>
      <path id="Vector-2" data-name="Vector" d="M0,6.15A8.6,8.6,0,0,1,3.6,0" transform="translate(3.49 6.22)" fill="none" stroke="#004aad" stroke-linecap="round" stroke-linejoin="round" stroke-width="1.5"/>
      <path id="Vector-3" data-name="Vector" d="M0,0A8.525,8.525,0,0,0,3.87.92,8.476,8.476,0,0,0,7.6.07" transform="translate(8.19 20.94)" fill="none" stroke="#004aad" stroke-linecap="round" stroke-linejoin="round" stroke-width="1.5"/>
      <path id="Vector-4" data-name="Vector" d="M5.56,2.78A2.78,2.78,0,1,1,2.78,0,2.78,2.78,0,0,1,5.56,2.78Z" transform="translate(9.28 2.14)" fill="none" stroke="#004aad" stroke-linecap="round" stroke-linejoin="round" stroke-width="1.5"/>
      <path id="Vector-5" data-name="Vector" d="M5.56,2.78A2.78,2.78,0,1,1,2.78,0,2.78,2.78,0,0,1,5.56,2.78Z" transform="translate(2.05 14.36)" fill="none" stroke="#004aad" stroke-linecap="round" stroke-linejoin="round" stroke-width="1.5"/>
      <path id="Vector-6" data-name="Vector" d="M5.56,2.78A2.78,2.78,0,1,1,2.78,0,2.78,2.78,0,0,1,5.56,2.78Z" transform="translate(16.39 14.36)" fill="none" stroke="#004aad" stroke-linecap="round" stroke-linejoin="round" stroke-width="1.5"/>
      <path id="Vector-7" data-name="Vector" d="M0,0H24V24H0Z" fill="none" opacity="0"/>
    </g>
  </g>
</svg>
